<svg width="18" height="24" viewBox="0 0 18 24" fill="none" xmlns="http://www.w3.org/2000/svg">
<path d="M8.99993 3C5.69095 3 2.99997 5.69098 2.99997 8.99997C2.99997 12.3089 5.69095 14.9999 8.99993 14.9999C12.3089 14.9999 14.9999 12.3089 14.9999 8.99997C14.9999 5.69098 12.3089 3 8.99993 3ZM8.99993 14C6.24295 14 3.99995 11.7569 3.99995 8.99997C3.99995 6.24298 6.24295 3.99998 8.99993 3.99998C11.7569 3.99998 13.9999 6.24298 13.9999 8.99997C13.9999 11.7569 11.7569 14 8.99993 14Z" fill="#B2B2B2"/>
<path d="M15.0769 15.6189C16.8689 13.9719 17.9999 11.6189 17.9999 8.99995C17.9999 4.03798 13.9629 0 8.99995 0C4.03699 0 0 4.03798 0 8.99995C0 11.6179 1.13099 13.9719 2.92198 15.6179L0.0320154 23.3249C-0.0399842 23.5178 0.0130314 23.7338 0.164999 23.8718C0.260014 23.9558 0.378982 23.9999 0.500013 23.9999C0.575997 23.9999 0.652027 23.9828 0.724027 23.9479L4.46402 22.0779L7.22302 23.9169C7.34902 24.0009 7.509 24.0219 7.65403 23.9769C7.79902 23.9299 7.91503 23.8199 7.96805 23.6769L9.06004 20.7639L10.0251 23.6579C10.0751 23.8059 10.191 23.9219 10.338 23.9729C10.485 24.0229 10.647 24.0029 10.777 23.9159L13.536 22.0769L17.276 23.9469C17.348 23.9829 17.424 23.9999 17.5 23.9999C17.621 23.9999 17.74 23.9559 17.834 23.8709C17.987 23.7339 18.039 23.5169 17.967 23.3239L15.0769 15.6189ZM8.53195 19.3249L7.25297 22.7349L4.777 21.0849C4.627 20.9859 4.43402 20.9729 4.27601 21.0539L1.41501 22.4849L3.73901 16.2869C4.99802 17.1979 6.49501 17.7969 8.124 17.9559L8.56397 19.2749C8.55398 19.2919 8.53898 19.3049 8.53195 19.3249ZM8.99995 16.9999C4.58899 16.9999 1.00003 13.4109 1.00003 8.99995C1.00003 4.58899 4.58899 0.999979 8.99995 0.999979C13.4109 0.999979 16.9999 4.58899 16.9999 8.99995C16.9999 13.4109 13.411 16.9999 8.99995 16.9999ZM13.723 21.0529C13.563 20.9719 13.371 20.9839 13.222 21.0839L10.767 22.7209L9.18998 17.9899C11.081 17.9499 12.8269 17.3249 14.2599 16.2869L16.584 22.4839L13.723 21.0529Z" fill="#B2B2B2"/>
</svg>
