<svg width="23" height="26" viewBox="0 0 23 26" fill="none" xmlns="http://www.w3.org/2000/svg">
<path d="M21.2545 10.7484C20.8419 10.7484 20.5043 10.4109 20.5043 9.99837C20.5043 7.12493 19.3884 4.42961 17.3534 2.39524C17.0627 2.10461 17.0627 1.62649 17.3534 1.33586C17.6488 1.04055 18.1224 1.04055 18.4131 1.33586C20.7247 3.65149 22 6.72649 22 9.99837C22.0047 10.4156 21.6718 10.7484 21.2545 10.7484Z" fill="#B2B2B2"/>
<path d="M0.750211 10.7485C0.337595 10.7485 0 10.411 0 9.99848C0 6.72661 1.27536 3.65161 3.58695 1.33598C3.88234 1.04536 4.35592 1.04536 4.64662 1.33598C4.93733 1.63129 4.93733 2.10473 4.64662 2.39536C2.62105 4.42973 1.50042 7.12973 1.50042 9.99848C1.50042 10.4157 1.16283 10.7485 0.750211 10.7485Z" fill="#B2B2B2"/>
<path d="M11.0047 24C8.93695 24 7.25366 22.3172 7.25366 20.25C7.25366 19.8375 7.59126 19.5 8.00387 19.5C8.41649 19.5 8.75409 19.8375 8.75409 20.25C8.75409 21.4922 9.76218 22.5 11.0047 22.5C12.2473 22.5 13.2554 21.4922 13.2554 20.25C13.2554 19.8375 13.593 19.5 14.0056 19.5C14.4182 19.5 14.7558 19.8375 14.7558 20.25C14.7558 22.3172 13.0725 24 11.0047 24Z" fill="#B2B2B2"/>
<path d="M19.2571 21H2.75247C1.78657 21 1.00354 20.2172 1.00354 19.2516C1.00354 18.7406 1.2286 18.2531 1.61778 17.9203C3.13695 16.6359 4.00439 14.7656 4.00439 12.7875V9.99844C3.9997 6.14062 7.14121 3 11.0048 3C14.8637 3 18.0052 6.14062 18.0052 9.99844V12.7875C18.0052 14.7656 18.8726 16.6359 20.3824 17.9109C20.781 18.2531 21.0061 18.7359 21.0061 19.2469C21.0061 20.2172 20.223 21 19.2571 21ZM11.0048 4.5C7.97113 4.5 5.50481 6.96563 5.50481 9.99844V12.7875C5.50481 15.2062 4.44514 17.4938 2.59305 19.0594C2.56023 19.0875 2.50396 19.1531 2.50396 19.2516C2.50396 19.3875 2.61649 19.5 2.75247 19.5H19.2571C19.3931 19.5 19.5056 19.3875 19.5056 19.2516C19.5056 19.1531 19.4494 19.0875 19.4165 19.0594C17.5645 17.4938 16.5048 15.2062 16.5048 12.7875V9.99844C16.5048 6.96563 14.0385 4.5 11.0048 4.5Z" fill="#B2B2B2"/>
<path d="M11.0046 4.5C10.592 4.5 10.2544 4.1625 10.2544 3.75V0.75C10.2544 0.3375 10.592 0 11.0046 0C11.4172 0 11.7548 0.3375 11.7548 0.75V3.75C11.7548 4.1625 11.4172 4.5 11.0046 4.5Z" fill="#B2B2B2"/>
</svg>
