<svg width="18" height="20" viewBox="0 0 18 20" fill="none" xmlns="http://www.w3.org/2000/svg">
<path d="M15.369 1.79385C12.9772 -0.597949 9.08225 -0.597949 6.69299 1.79385L0.0660392 8.41572C0.0228752 8.45889 2.34733e-05 8.51728 2.34733e-05 8.57822C2.34733e-05 8.63916 0.0228752 8.69756 0.0660392 8.74072L1.00295 9.67764C1.04578 9.72027 1.10375 9.74421 1.16418 9.74421C1.22462 9.74421 1.28259 9.72027 1.32541 9.67764L7.95237 3.05576C8.77502 2.2331 9.86936 1.78115 11.0322 1.78115C12.1951 1.78115 13.2895 2.2331 14.1096 3.05576C14.9322 3.87842 15.3842 4.97275 15.3842 6.1331C15.3842 7.296 14.9322 8.38779 14.1096 9.21045L7.35569 15.9618L6.26135 17.0562C5.23811 18.0794 3.57502 18.0794 2.55178 17.0562C2.05666 16.561 1.78498 15.9034 1.78498 15.2026C1.78498 14.5019 2.05666 13.8442 2.55178 13.3491L9.25237 6.65107C9.42248 6.4835 9.64592 6.38955 9.88459 6.38955H9.88713C10.1258 6.38955 10.3467 6.4835 10.5143 6.65107C10.6844 6.82119 10.7758 7.04463 10.7758 7.2833C10.7758 7.51943 10.6819 7.74287 10.5143 7.91045L5.03752 13.3821C4.99436 13.4253 4.97151 13.4837 4.97151 13.5446C4.97151 13.6056 4.99436 13.664 5.03752 13.7071L5.97444 14.644C6.01726 14.6867 6.07523 14.7106 6.13567 14.7106C6.1961 14.7106 6.25407 14.6867 6.2969 14.644L11.7711 9.16982C12.2764 8.66455 12.5531 7.99424 12.5531 7.28076C12.5531 6.56728 12.2738 5.89443 11.7711 5.3917C10.7276 4.34814 9.03147 4.35068 7.98791 5.3917L7.33791 6.04424L1.28987 12.0897C0.879379 12.4978 0.553993 12.9833 0.332578 13.5181C0.111163 14.0529 -0.00187299 14.6264 2.34733e-05 15.2052C2.34733e-05 16.3808 0.459594 17.4853 1.28987 18.3155C2.15061 19.1737 3.27795 19.6028 4.4053 19.6028C5.53264 19.6028 6.65998 19.1737 7.51819 18.3155L15.369 10.4698C16.5242 9.31201 17.1641 7.7708 17.1641 6.1331C17.1666 4.49287 16.5268 2.95166 15.369 1.79385Z" fill="#F98E04"/>
</svg>
