<svg width="16" height="18" viewBox="0 0 16 18" fill="none" xmlns="http://www.w3.org/2000/svg">
<path d="M13 1.5H3C2.60217 1.5 2.22064 1.65804 1.93934 1.93934C1.65804 2.22064 1.5 2.60217 1.5 3V15C1.5 15.3978 1.65804 15.7794 1.93934 16.0607C2.22065 16.342 2.60218 16.5 3 16.5H13C13.3978 16.5 13.7794 16.342 14.0607 16.0607C14.342 15.7794 14.5 15.3978 14.5 15V3C14.5 2.60218 14.342 2.22065 14.0607 1.93934C13.7794 1.65804 13.3978 1.5 13 1.5ZM1.23223 1.23223C1.70107 0.763392 2.33696 0.5 3 0.5H13C13.663 0.5 14.2989 0.763392 14.7678 1.23223C15.2366 1.70107 15.5 2.33696 15.5 3V15C15.5 15.663 15.2366 16.2989 14.7678 16.7678C14.2989 17.2366 13.663 17.5 13 17.5H3C2.33696 17.5 1.70107 17.2366 1.23223 16.7678C0.763392 16.2989 0.5 15.663 0.5 15V3C0.5 2.33696 0.763392 1.70107 1.23223 1.23223Z" fill="#B2B2B2" stroke="#B2B2B2"/>
<path d="M4 4H12V6H4V4ZM4 8H12V10H4V8ZM4 12H9V14H4V12Z" fill="#B2B2B2"/>
</svg>
