<svg width="24" height="24" viewBox="0 0 24 24" fill="none" xmlns="http://www.w3.org/2000/svg">
<path d="M7.87561 7.3125V6.1875C7.87561 6.08437 7.95999 6 8.06311 6H17.0631C17.1662 6 17.2506 6.08437 17.2506 6.1875V7.3125C17.2506 7.41563 17.1662 7.5 17.0631 7.5H8.06311C7.95999 7.5 7.87561 7.41563 7.87561 7.3125ZM17.0631 9.375C17.1662 9.375 17.2506 9.45937 17.2506 9.5625V10.6875C17.2506 10.7906 17.1662 10.875 17.0631 10.875H12.7506C12.6475 10.875 12.5631 10.7906 12.5631 10.6875V9.5625C12.5631 9.45937 12.6475 9.375 12.7506 9.375H17.0631ZM13.6881 19.9688H19.1256V3.46875H6.00061V11.5312C6.00061 11.6344 5.91623 11.7188 5.81311 11.7188H4.50061C4.39749 11.7188 4.31311 11.6344 4.31311 11.5312V2.53125C4.31311 2.11641 4.64827 1.78125 5.06311 1.78125H20.0631C20.478 1.78125 20.8131 2.11641 20.8131 2.53125V20.9062C20.8131 21.3211 20.478 21.6562 20.0631 21.6562H13.6881C13.585 21.6562 13.5006 21.5719 13.5006 21.4688V20.1562C13.5006 20.0531 13.585 19.9688 13.6881 19.9688ZM3.24202 21.1758L5.42873 18.9891C4.90608 18.2977 4.59436 17.4352 4.59436 16.5C4.59436 14.2219 6.44124 12.375 8.71936 12.375C10.9975 12.375 12.8444 14.2219 12.8444 16.5C12.8444 18.7781 10.9975 20.625 8.71936 20.625C7.8803 20.625 7.10217 20.3742 6.45061 19.9453L4.23108 22.1648C4.19358 22.2023 4.14671 22.2188 4.09983 22.2188C4.05296 22.2188 4.00373 22.2 3.96858 22.1648L3.24202 21.4383C3.22473 21.4211 3.21101 21.4006 3.20164 21.3781C3.19228 21.3556 3.18746 21.3314 3.18746 21.307C3.18746 21.2826 3.19228 21.2585 3.20164 21.236C3.21101 21.2134 3.22473 21.193 3.24202 21.1758ZM8.71936 19.125C10.1701 19.125 11.3444 17.9508 11.3444 16.5C11.3444 15.0492 10.1701 13.875 8.71936 13.875C7.26858 13.875 6.09436 15.0492 6.09436 16.5C6.09436 17.9508 7.26858 19.125 8.71936 19.125Z" fill="#6D6D77"/>
</svg>
