<svg width="21" height="19" viewBox="0 0 21 19" fill="none" xmlns="http://www.w3.org/2000/svg">
<path d="M12 15.6667C15.4568 15.6667 17.1856 15.6667 18.259 14.5923C19.3333 13.5189 19.3333 11.7901 19.3333 8.33333C19.3333 4.87658 19.3333 3.14775 18.259 2.07433C17.1856 1 15.4568 1 12 1H8.33333C4.87658 1 3.14775 1 2.07433 2.07433C1 3.14775 1 4.87658 1 8.33333C1 11.7901 1 13.5189 2.07433 14.5923C2.67292 15.1918 3.475 15.4568 4.66667 15.5732" stroke="#BBBBC9" stroke-width="2" stroke-linecap="round" stroke-linejoin="round"/>
<path d="M12 15.6667C10.867 15.6667 9.6185 16.125 8.47908 16.7163C6.64758 17.6668 5.73183 18.1426 5.28083 17.8392C4.82983 17.5367 4.91508 16.5971 5.0865 14.7188L5.125 14.2917" stroke="#BBBBC9" stroke-width="2" stroke-linecap="round"/>
</svg>
