<svg width="11" height="12" viewBox="0 0 11 12" fill="none" xmlns="http://www.w3.org/2000/svg">
<g clip-path="url(#clip0_837_1732)">
<path d="M2.23777 7.56689V7.49768L0 8.76652V8.88649L5.05229 11.8117V9.19562L2.23777 7.56689Z" fill="#A27025"/>
<path d="M7.86677 7.49768V7.56689L5.05225 9.19562V11.8117L10.0999 8.88649V8.76652L7.86677 7.49768Z" fill="#AE8C35"/>
<path d="M7.86677 7.4977L5.05225 5.90588L7.86677 7.4977Z" stroke="white" stroke-width="0.0461397" stroke-miterlimit="10"/>
<path d="M0.0275879 2.85598L2.25152 4.20326L5.0522 2.65758V0.0783691L0.0275879 2.85598Z" fill="#E6A23D"/>
<path d="M5.18605 0L5.05225 0.0784375V2.65765L5.12607 2.61612L7.84831 4.20332L5.05225 5.90588L10.0722 2.85143L5.18605 0Z" fill="#F5BD89"/>
<path d="M2.25146 4.20327L5.05214 5.90583V2.65759L2.25146 4.20327Z" fill="#F5BD89"/>
<path d="M5.12607 2.61609L5.05225 2.65761V5.90585L7.84831 4.20329L5.12607 2.61609Z" fill="#F2D261"/>
<path d="M2.23779 7.4977V7.56691L5.05231 9.19564V5.90588L2.23779 7.4977Z" fill="#F5BD89"/>
<path d="M5.05225 5.90588V9.19564L7.86677 7.56691V7.4977L5.05225 5.90588Z" fill="#F2D261"/>
<path d="M10.1 2.8699L10.0723 2.85144L7.84839 4.20333L7.86684 4.21256V7.49771L10.1 8.76655V2.8699Z" fill="#E6A23D"/>
<path d="M7.84831 4.20337L5.05225 5.90592L7.86677 7.49774V4.2126L7.84831 4.20337Z" fill="#F2D261"/>
<path d="M2.23777 4.21259L2.25162 4.20336L1.50877 3.75119L0.0276838 2.85608L0 2.86992V8.76657L2.23777 7.49773V4.21259Z" fill="#AE8C35"/>
<path d="M2.23779 4.2126V7.49774L5.05231 5.90592L2.25163 4.20337L2.23779 4.2126Z" fill="#F5BD89"/>
</g>
<defs>
<clipPath id="clip0_837_1732">
<rect width="10.1" height="11.8118" fill="white"/>
</clipPath>
</defs>
</svg>
