<svg width="24" height="24" viewBox="0 0 24 24" fill="none" xmlns="http://www.w3.org/2000/svg">
<path d="M20.7633 11.4891C20.8477 11.2078 20.8898 10.9172 20.8898 10.6219C20.8898 9.95861 20.6719 9.32111 20.2781 8.8008C20.3625 8.51955 20.4047 8.22893 20.4047 7.93361C20.4047 7.27033 20.1867 6.63283 19.793 6.11252C19.8773 5.83127 19.9195 5.54064 19.9195 5.24533C19.9195 4.03596 19.2 2.94611 18.0844 2.47033C17.8883 2.38579 17.6768 2.3427 17.4633 2.34377H3.375C2.96016 2.34377 2.625 2.67893 2.625 3.09377V11.625C2.625 12.0399 2.96016 12.375 3.375 12.375H6.40547L8.41641 19.6594C8.73984 20.8336 9.81797 21.6539 11.0367 21.6539C11.7328 21.6539 12.382 21.3774 12.8625 20.8711C13.343 20.3672 13.5891 19.7063 13.5539 19.0102L13.4133 16.1297H19.0359C19.3195 16.1297 19.5961 16.0547 19.8398 15.9117C20.7867 15.361 21.375 14.3625 21.375 13.3102C21.375 12.6469 21.157 12.0094 20.7633 11.4891ZM4.3125 10.6852V4.02893H6.21094V10.6852H4.3125ZM19.0125 14.4446H11.6437L11.8687 19.0946C11.8828 19.3735 11.7586 19.636 11.5266 19.8094C11.3836 19.9149 11.2078 19.9688 11.032 19.9664C10.8075 19.9642 10.5896 19.8893 10.4113 19.7528C10.233 19.6163 10.1037 19.4256 10.043 19.2094L7.71094 10.7602V4.02893H17.4469C17.6811 4.13392 17.8801 4.30435 18.0198 4.51973C18.1595 4.73511 18.234 4.98627 18.2344 5.24299C18.2344 5.47033 18.1805 5.68596 18.0727 5.88283L17.7469 6.47814L18.2602 6.92346C18.4046 7.04858 18.5204 7.20337 18.5997 7.37728C18.679 7.55119 18.7199 7.74014 18.7195 7.93127C18.7195 8.15861 18.6656 8.37424 18.5578 8.57111L18.232 9.16643L18.7453 9.61174C18.8898 9.73687 19.0056 9.89165 19.0849 10.0656C19.1641 10.2395 19.205 10.4284 19.2047 10.6196C19.2047 10.8469 19.1508 11.0625 19.043 11.2594L18.7148 11.857L19.2281 12.3024C19.3726 12.4275 19.4884 12.5823 19.5677 12.7562C19.647 12.9301 19.6878 13.1191 19.6875 13.3102C19.6875 13.7578 19.4297 14.1891 19.0125 14.4446Z" fill="#6D6D77"/>
</svg>
