<svg width="18" height="18" viewBox="0 0 18 18" fill="none" xmlns="http://www.w3.org/2000/svg">
<path d="M13.1366 4.93118C13.1549 4.89156 13.1795 4.85526 13.2094 4.82367L13.2285 4.80602C13.2671 4.77036 13.3124 4.74265 13.3617 4.72448C13.411 4.70631 13.4633 4.69803 13.5158 4.70011C13.5683 4.70219 13.6199 4.71459 13.6676 4.73661C13.7153 4.75862 13.7582 4.78982 13.7939 4.82842L17.3938 8.72834L17.394 8.72853C17.4623 8.80244 17.5002 8.89937 17.5002 9C17.5002 9.10063 17.4623 9.19756 17.394 9.27147L17.3938 9.27166L13.7942 13.1712C13.7942 13.1713 13.7941 13.1714 13.794 13.1715C13.7219 13.2492 13.622 13.2951 13.5161 13.2992C13.41 13.3033 13.3067 13.2651 13.2288 13.193C13.1509 13.121 13.1049 13.0209 13.1008 12.9149C13.0967 12.8088 13.1349 12.7055 13.207 12.6276L13.2074 12.6272L15.413 10.238L16.1877 9.3988H15.0456H5.7C5.59391 9.3988 5.49217 9.35666 5.41716 9.28164C5.34214 9.20663 5.3 9.10489 5.3 8.9988C5.3 8.89271 5.34214 8.79097 5.41716 8.71596C5.49217 8.64094 5.59391 8.5988 5.7 8.5988H15.0444H16.1865L15.4118 7.75964L13.2062 5.37044L13.206 5.37026C13.1704 5.33167 13.1427 5.28644 13.1245 5.23715L12.6553 5.41009L13.1245 5.23714C13.1063 5.18785 13.098 5.13545 13.1001 5.08295C13.1022 5.03046 13.1146 4.97888 13.1366 4.93118ZM11.9828 17.3828C11.9078 17.4579 11.8061 17.5 11.7 17.5H4.2C3.2187 17.5 2.27759 17.1102 1.58371 16.4163C0.889821 15.7224 0.5 14.7813 0.5 13.8V4.2C0.5 3.2187 0.889821 2.27759 1.58371 1.5837C2.27759 0.88982 3.2187 0.5 4.2 0.5H11.7C11.8061 0.5 11.9078 0.542143 11.9828 0.617157C12.0579 0.692172 12.1 0.793914 12.1 0.9C12.1 1.00609 12.0579 1.10783 11.9828 1.18284C11.9078 1.25786 11.8061 1.3 11.7 1.3H4.2C3.43087 1.3 2.69325 1.60553 2.14939 2.14939C1.60553 2.69325 1.3 3.43087 1.3 4.2V13.8C1.3 14.5691 1.60553 15.3068 2.14939 15.8506C2.69325 16.3945 3.43087 16.7 4.2 16.7H11.7C11.8061 16.7 11.9078 16.7421 11.9828 16.8172C12.0579 16.8922 12.1 16.9939 12.1 17.1C12.1 17.2061 12.0579 17.3078 11.9828 17.3828Z" fill="#B2B2B2" stroke="#B2B2B2"/>
</svg>
