<svg width="24" height="24" viewBox="0 0 24 24" fill="none" xmlns="http://www.w3.org/2000/svg">
<path d="M20.7633 12.5086C20.8477 12.7898 20.8898 13.0805 20.8898 13.3758C20.8898 14.0391 20.6719 14.6766 20.2781 15.1969C20.3625 15.4781 20.4047 15.7688 20.4047 16.0641C20.4047 16.7273 20.1867 17.3648 19.793 17.8852C19.8773 18.1664 19.9195 18.457 19.9195 18.7523C19.9195 19.9617 19.2 21.0516 18.0844 21.5273C17.8883 21.6119 17.6768 21.655 17.4633 21.6539H3.375C2.96016 21.6539 2.625 21.3188 2.625 20.9039V12.3727C2.625 11.9578 2.96016 11.6227 3.375 11.6227H6.40547L8.41641 4.33829C8.73984 3.16407 9.81797 2.34376 11.0367 2.34376C11.7328 2.34376 12.382 2.62032 12.8625 3.12657C13.343 3.63047 13.5891 4.29141 13.5539 4.9875L13.4133 7.86797H19.0359C19.3195 7.86797 19.5961 7.94297 19.8398 8.08594C20.7867 8.63672 21.375 9.63516 21.375 10.6875C21.375 11.3508 21.157 11.9883 20.7633 12.5086ZM4.3125 13.3125V19.9688H6.21094V13.3125H4.3125ZM19.0125 9.55313H11.6437L11.8687 4.90313C11.8828 4.62422 11.7586 4.36172 11.5266 4.18829C11.3836 4.08282 11.2078 4.02891 11.032 4.03126C10.8075 4.03343 10.5896 4.1084 10.4113 4.2449C10.233 4.3814 10.1037 4.57207 10.043 4.78829L7.71094 13.2375V19.9688H17.4469C17.6811 19.8638 17.8801 19.6933 18.0198 19.4779C18.1595 19.2626 18.234 19.0114 18.2344 18.7547C18.2344 18.5273 18.1805 18.3117 18.0727 18.1148L17.7469 17.5195L18.2602 17.0742C18.4046 16.9491 18.5204 16.7943 18.5997 16.6204C18.679 16.4465 18.7199 16.2575 18.7195 16.0664C18.7195 15.8391 18.6656 15.6234 18.5578 15.4266L18.232 14.8313L18.7453 14.3859C18.8898 14.2608 19.0056 14.106 19.0849 13.9321C19.1641 13.7582 19.205 13.5693 19.2047 13.3781C19.2047 13.1508 19.1508 12.9352 19.043 12.7383L18.7148 12.1406L19.2281 11.6953C19.3726 11.5702 19.4884 11.4154 19.5677 11.2415C19.647 11.0676 19.6878 10.8786 19.6875 10.6875C19.6875 10.2398 19.4297 9.8086 19.0125 9.55313Z" fill="#6D6D77"/>
</svg>
