<svg width="18" height="18" viewBox="0 0 18 18" fill="none" xmlns="http://www.w3.org/2000/svg">
<path d="M1.60473 12.2306C1.63535 11.5191 1.68127 10.8075 1.69658 10.096C1.69658 10.0042 1.62769 9.88177 1.5588 9.83586C0.464251 9.13198 -0.0409273 8.145 0.00499803 6.84434C0.0356149 6.04099 0.0432691 5.23764 0.00499803 4.43428C-0.0562357 3.30194 0.448943 2.47564 1.31387 1.81766C2.40077 0.991352 3.65606 0.562899 4.9879 0.318068C7.73576 -0.186896 10.4683 -0.14099 13.1243 0.823031C13.8515 1.09081 14.548 1.50397 15.1833 1.96302C15.9794 2.53685 16.3774 3.34785 16.3468 4.36543C16.3161 5.36005 16.4003 6.35468 16.3161 7.3493C16.2702 7.88487 16.4156 8.1603 16.8366 8.47399C17.6097 9.05547 17.9771 9.88942 17.9695 10.8687C17.9618 11.7639 17.9312 12.6514 17.9771 13.5466C18.0307 14.6789 17.5332 15.5052 16.6682 16.1632C15.5813 16.9895 14.3184 17.4256 12.9942 17.6704C10.3382 18.1601 7.69749 18.1066 5.10271 17.2649C4.26074 16.9895 3.47236 16.607 2.79113 16.0408C2.04102 15.4134 1.58942 14.6407 1.643 13.6231C1.66596 13.164 1.65066 12.705 1.65066 12.2459C1.62769 12.2306 1.61238 12.2306 1.60473 12.2306ZM7.85057 1.63403C7.4449 1.67229 6.71775 1.71819 5.99825 1.80235C5.59258 1.84826 5.19456 1.93242 4.80419 2.03953C3.78618 2.30732 2.79113 2.62866 2.01806 3.3861C1.51288 3.86811 1.48992 4.35778 2.02571 4.79388C2.50793 5.19173 3.06669 5.55133 3.64841 5.76555C6.28146 6.74488 8.97574 6.76783 11.693 6.10985C12.6115 5.88797 13.4917 5.54367 14.2265 4.9163C14.8618 4.37308 14.8771 3.79925 14.2265 3.28664C13.8209 2.9653 13.3616 2.69752 12.887 2.49094C11.3792 1.84061 9.78709 1.66464 7.85057 1.63403ZM3.25039 10.7846C3.39582 10.9835 3.49532 11.2436 3.68668 11.3661C4.23778 11.7257 4.78889 12.1082 5.39357 12.3454C7.2612 13.0722 9.21302 13.1564 11.1802 12.9957C12.4661 12.8962 13.729 12.6438 14.8848 12.0393C15.3134 11.8175 15.7038 11.4961 16.0712 11.1671C16.3161 10.9453 16.4463 10.601 16.2319 10.3026C16.0023 9.98888 15.6961 9.7364 15.4053 9.48392C15.3594 9.44566 15.1986 9.49922 15.1144 9.55278C14.5251 9.87412 13.9663 10.272 13.354 10.5245C11.272 11.3737 9.0829 11.5726 6.87083 11.3814C5.68443 11.2819 4.50568 10.9988 3.25039 10.7846ZM1.65066 6.66071C1.59708 7.70125 1.74251 8.01493 2.6304 8.5352C3.03607 8.77238 3.4647 8.97896 3.901 9.13198C6.18195 9.90472 8.51649 9.97358 10.874 9.55278C11.9532 9.3615 12.9942 9.03251 13.9204 8.41278C14.5557 7.99198 14.8465 7.43346 14.6628 6.67602C10.3305 8.74943 6.00591 8.74943 1.65066 6.66071ZM16.3008 13.1946C11.9685 15.2833 7.64391 15.2833 3.29631 13.187C3.16619 13.8373 3.28866 14.4188 3.87803 14.786C4.38321 15.0997 4.89604 15.4211 5.4548 15.62C7.65156 16.408 9.91721 16.4846 12.1982 16.125C13.3846 15.9413 14.5251 15.6047 15.5507 14.9314C16.1937 14.5183 16.4692 13.9521 16.3008 13.1946Z" fill="#B2B2B2"/>
</svg>
