<svg width="24" height="24" viewBox="0 0 24 24" fill="none" xmlns="http://www.w3.org/2000/svg">
<path d="M19.9686 24H4.03317C2.84582 24 1.8772 22.9666 1.8772 21.7V9.59993C1.8772 9.15993 2.21465 8.79993 2.6271 8.79993C3.03955 8.79993 3.377 9.15993 3.377 9.59993V21.7C3.377 22.0866 3.67071 22.4 4.03317 22.4H19.9686C20.331 22.4 20.6248 22.0866 20.6248 21.7V9.59993C20.6248 9.15993 20.9622 8.79993 21.3747 8.79993C21.7871 8.79993 22.1246 9.15993 22.1246 9.59993V21.7C22.1246 22.9666 21.1559 24 19.9686 24Z" fill="#B2B2B2"/>
<path d="M23.2485 12.4C23.0548 12.4 22.8673 12.32 22.7174 12.1667L13.3936 2.21334C12.6249 1.39334 11.3751 1.39334 10.6127 2.21334L1.28265 12.1667C0.988934 12.48 0.513996 12.48 0.220284 12.1667C-0.0734279 11.8534 -0.0734279 11.3467 0.220284 11.0334L9.55032 1.08C10.9001 -0.360001 13.0999 -0.360001 14.4559 1.08L23.7797 11.0267C24.0734 11.34 24.0734 11.8467 23.7797 12.16C23.6297 12.32 23.4423 12.4 23.2485 12.4Z" fill="#B2B2B2"/>
<path d="M15.0005 24H9.00125C8.5888 24 8.25134 23.64 8.25134 23.2V16.1C8.25134 14.72 9.30121 13.6 10.5948 13.6H13.4069C14.7005 13.6 15.7504 14.72 15.7504 16.1V23.2C15.7504 23.64 15.4129 24 15.0005 24ZM9.75115 22.4H14.2506V16.1C14.2506 15.6067 13.8694 15.2 13.4069 15.2H10.5948C10.1323 15.2 9.75115 15.6067 9.75115 16.1V22.4Z" fill="#B2B2B2"/>
</svg>
