<svg width="25" height="24" viewBox="0 0 25 24" fill="none" xmlns="http://www.w3.org/2000/svg">
<path d="M24.4833 0.982551C24.6021 0.356777 24.0646 -0.175491 23.5458 0.0546789L0.950039 9.98076C0.675015 10.103 0.5 10.3979 0.5 10.736C0.5 11.0741 0.681266 11.369 0.950039 11.4912L7.30059 14.3108V23.194C7.30059 23.568 7.52561 23.8917 7.83814 23.978C8.15067 24.0643 8.48195 23.8917 8.62571 23.5536L11.2509 17.562L17.6577 23.0357C18.0453 23.3666 18.6078 23.158 18.7516 22.6185C24.7334 0.0546792 24.4771 1.0329 24.4833 0.982551ZM18.9079 3.82371L7.90065 12.8435L3.16273 10.736L18.9079 3.82371ZM8.70697 14.1742L18.3016 6.31242C10.0446 16.332 10.4759 15.8069 10.4384 15.8573C10.3821 15.9364 10.5321 15.6199 8.70697 19.7918V14.1742ZM17.6953 21.0505L12.0573 16.2313L22.2581 3.85968L17.6953 21.0505Z" fill="#B2B2B2"/>
</svg>
