<svg width="24" height="26" viewBox="0 0 24 26" fill="none" xmlns="http://www.w3.org/2000/svg">
<path d="M21.7545 10.7484C21.3419 10.7484 21.0043 10.4109 21.0043 9.99837C21.0043 7.12493 19.8884 4.42961 17.8534 2.39524C17.5627 2.10461 17.5627 1.62649 17.8534 1.33586C18.1488 1.04055 18.6224 1.04055 18.9131 1.33586C21.2247 3.65149 22.5 6.72649 22.5 9.99837C22.5047 10.4156 22.1718 10.7484 21.7545 10.7484Z" fill="#B2B2B2"/>
<path d="M1.25021 10.7485C0.837595 10.7485 0.5 10.411 0.5 9.99851C0.5 6.72664 1.77536 3.65164 4.08695 1.33601C4.38234 1.04539 4.85592 1.04539 5.14662 1.33601C5.43733 1.63132 5.43733 2.10476 5.14662 2.39539C3.12105 4.42976 2.00042 7.12976 2.00042 9.99851C2.00042 10.4157 1.66283 10.7485 1.25021 10.7485Z" fill="#B2B2B2"/>
<path d="M11.5047 24C9.43695 24 7.75366 22.3172 7.75366 20.25C7.75366 19.8375 8.09126 19.5 8.50387 19.5C8.91649 19.5 9.25409 19.8375 9.25409 20.25C9.25409 21.4922 10.2622 22.5 11.5047 22.5C12.7473 22.5 13.7554 21.4922 13.7554 20.25C13.7554 19.8375 14.093 19.5 14.5056 19.5C14.9182 19.5 15.2558 19.8375 15.2558 20.25C15.2558 22.3172 13.5725 24 11.5047 24Z" fill="#B2B2B2"/>
<path d="M19.7571 21H3.25247C2.28657 21 1.50354 20.2172 1.50354 19.2516C1.50354 18.7406 1.7286 18.2531 2.11778 17.9203C3.63695 16.6359 4.50439 14.7656 4.50439 12.7875V9.99844C4.4997 6.14062 7.64121 3 11.5048 3C15.3637 3 18.5052 6.14062 18.5052 9.99844V12.7875C18.5052 14.7656 19.3726 16.6359 20.8824 17.9109C21.281 18.2531 21.5061 18.7359 21.5061 19.2469C21.5061 20.2172 20.723 21 19.7571 21ZM11.5048 4.5C8.47113 4.5 6.00481 6.96563 6.00481 9.99844V12.7875C6.00481 15.2062 4.94514 17.4938 3.09305 19.0594C3.06023 19.0875 3.00396 19.1531 3.00396 19.2516C3.00396 19.3875 3.11649 19.5 3.25247 19.5H19.7571C19.8931 19.5 20.0056 19.3875 20.0056 19.2516C20.0056 19.1531 19.9494 19.0875 19.9165 19.0594C18.0645 17.4938 17.0048 15.2062 17.0048 12.7875V9.99844C17.0048 6.96563 14.5385 4.5 11.5048 4.5Z" fill="#B2B2B2"/>
<path d="M11.5046 4.5C11.092 4.5 10.7544 4.1625 10.7544 3.75V0.75C10.7544 0.3375 11.092 0 11.5046 0C11.9172 0 12.2548 0.3375 12.2548 0.75V3.75C12.2548 4.1625 11.9172 4.5 11.5046 4.5Z" fill="#B2B2B2"/>
</svg>
