<svg width="24" height="22" viewBox="0 0 24 22" fill="none" xmlns="http://www.w3.org/2000/svg">
<path d="M22.8827 20.5718C21.25 17.7593 18.6367 15.6483 15.5436 14.6437C17.0262 13.7621 18.1783 12.4181 18.823 10.8182C19.4676 9.21834 19.5692 7.45106 19.112 5.78786C18.6549 4.12467 17.6643 2.65757 16.2925 1.61194C14.9207 0.566313 13.2435 0 11.5186 0C9.79376 0 8.11659 0.566313 6.74478 1.61194C5.37297 2.65757 4.3824 4.12467 3.92525 5.78786C3.4681 7.45106 3.56965 9.21834 4.21431 10.8182C4.85897 12.4181 6.01108 13.7621 7.49363 14.6437C4.40061 15.6483 1.78725 17.7593 0.15457 20.5718C0.0860893 20.6712 0.0388967 20.7836 0.0159576 20.902C-0.00698162 21.0205 -0.0051717 21.1424 0.0212735 21.2602C0.0477187 21.3779 0.0982277 21.4889 0.169627 21.5862C0.241025 21.6834 0.331771 21.7649 0.436161 21.8254C0.540551 21.8859 0.656329 21.9242 0.77622 21.9378C0.896112 21.9514 1.01752 21.9401 1.13283 21.9045C1.24814 21.869 1.35484 21.81 1.44624 21.7312C1.53764 21.6524 1.61176 21.5556 1.66394 21.4468C2.66405 19.7187 4.10102 18.2839 5.8307 17.2864C7.56039 16.289 9.52196 15.7639 11.5186 15.7639C13.5153 15.7639 15.4769 16.289 17.2066 17.2864C18.9362 18.2839 20.3732 19.7187 21.3733 21.4468C21.4255 21.5556 21.4996 21.6524 21.591 21.7312C21.6824 21.81 21.7891 21.869 21.9044 21.9045C22.0197 21.9401 22.1412 21.9514 22.261 21.9378C22.3809 21.9242 22.4967 21.8859 22.6011 21.8254C22.7055 21.7649 22.7962 21.6834 22.8676 21.5862C22.939 21.4889 22.9895 21.3779 23.016 21.2602C23.0424 21.1424 23.0442 21.0205 23.0213 20.902C22.9984 20.7836 22.9512 20.6712 22.8827 20.5718ZM5.39363 7.8843C5.39363 6.67289 5.75286 5.48869 6.42588 4.48144C7.0989 3.47418 8.0555 2.68913 9.1747 2.22554C10.2939 1.76195 11.5254 1.64066 12.7136 1.87699C13.9017 2.11333 14.9931 2.69668 15.8497 3.55327C16.7063 4.40987 17.2896 5.50124 17.5259 6.68937C17.7623 7.87751 17.641 9.10904 17.1774 10.2282C16.7138 11.3474 15.9288 12.304 14.9215 12.9771C13.9142 13.6501 12.73 14.0093 11.5186 14.0093C9.89418 14.0093 8.33626 13.364 7.1876 12.2153C6.03894 11.0667 5.39363 9.50875 5.39363 7.8843Z" fill="#B2B2B2"/>
</svg>
