<svg width="23" height="23" viewBox="0 0 23 23" fill="none" xmlns="http://www.w3.org/2000/svg">
<path d="M20.0216 0.830668L2.40981 6.87408C1.25167 7.27132 0.642643 8.53609 1.05174 9.7045C1.26095 10.2995 1.70962 10.7788 2.28637 11.031L9.53726 14.1669L12.6762 21.4147C13.1682 22.5497 14.488 23.0796 15.618 22.5929C15.876 22.4835 16.106 22.3277 16.3019 22.1317C16.5407 21.8929 16.7178 21.6046 16.83 21.2882L22.8734 3.67639C23.2707 2.51824 22.6518 1.24413 21.4864 0.831979C21.0117 0.669537 20.4947 0.666902 20.0216 0.830668ZM2.86718 9.66451C2.58346 9.54613 2.40352 9.26209 2.41427 8.95441C2.41885 8.6467 2.61443 8.37688 2.90936 8.27991L20.3583 2.28798L9.92686 12.7194L2.86718 9.66451ZM15.4211 20.7917C15.2877 21.1787 14.8671 21.3828 14.4787 21.2454C14.2814 21.1767 14.1206 21.0282 14.0365 20.8338L10.9816 13.7742L21.4131 3.34274L15.4211 20.7917Z" fill="#F98E04"/>
</svg>
