<svg width="24" height="24" viewBox="0 0 24 24" fill="none" xmlns="http://www.w3.org/2000/svg">
<g clip-path="url(#clip0_1_2067)">
<path d="M24 24C15.9843 24 8.00626 24 0 24C0 15.9937 0 8.01566 0 0C7.98747 0 15.9749 0 24 0C24 7.97807 24 15.9655 24 24ZM15.9937 20.2976C15.9937 14.7345 15.9937 9.21848 15.9937 3.68363C14.8661 3.68363 13.7666 3.61785 12.686 3.71182C12.1034 3.75881 11.4832 3.98434 10.9851 4.29444C8.30697 5.95771 7.70556 10.177 9.8011 12.545C10.2803 13.0901 10.8818 13.5223 11.4644 14.0392C10.3367 16.0689 9.19029 18.1551 7.98747 20.3258C8.64526 20.3258 9.20908 20.307 9.76351 20.3352C10.1018 20.354 10.2616 20.2224 10.3931 19.9311C11.2013 18.1081 12.0282 16.285 12.8645 14.4714C12.9303 14.3211 13.0901 14.1425 13.2216 14.1237C13.5505 14.0767 13.8982 14.1049 14.2835 14.1049C14.2835 16.2099 14.2835 18.2584 14.2835 20.3352C14.7345 20.3352 15.1386 20.3352 15.5427 20.3352C15.6836 20.3164 15.8246 20.307 15.9937 20.2976Z" fill="#FF3D00"/>
<path d="M14.1801 5.05554C14.1801 7.62093 14.1801 10.1111 14.1801 12.6295C13.7103 12.6295 13.2686 12.6671 12.8364 12.6201C11.7651 12.5168 11.1073 11.859 10.7878 10.8817C10.3649 9.58491 10.3367 8.26932 10.7502 6.96314C11.1825 5.60996 11.9812 5.04614 13.3814 5.04614C13.6445 5.05554 13.8888 5.05554 14.1801 5.05554Z" fill="#FF3D00"/>
</g>
<defs>
<clipPath id="clip0_1_2067">
<rect width="24" height="24" rx="12" fill="white"/>
</clipPath>
</defs>
</svg>
